<?xml version="1.0" standalone="no"?>
<!DOCTYPE svg PUBLIC "-//W3C//DTD SVG 20010904//EN"
 "http://www.w3.org/TR/2001/REC-SVG-20010904/DTD/svg10.dtd">
<svg version="1.0" xmlns="http://www.w3.org/2000/svg"
 width="1024.000000pt" height="1024.000000pt" viewBox="0 0 1024.000000 1024.000000"
 preserveAspectRatio="xMidYMid meet">

<g transform="translate(0.000000,1024.000000) scale(0.100000,-0.100000)"
fill="#000000" stroke="none">
<path d="M0 5120 l0 -5120 5120 0 5120 0 0 5120 0 5120 -5120 0 -5120 0 0
-5120z m5086 3475 c157 -40 297 -142 393 -284 96 -144 126 -282 102 -466 -24
-180 -96 -343 -221 -498 -133 -166 -341 -256 -560 -243 -119 7 -192 26 -299
77 -153 74 -291 239 -348 416 -47 145 -40 344 18 499 31 83 128 222 207 296
149 140 265 199 432 221 59 8 213 -2 276 -18z m-1681 -318 c160 -46 272 -114
385 -234 63 -67 90 -105 130 -186 65 -133 81 -196 81 -332 0 -191 -43 -333
-155 -509 -232 -363 -652 -535 -1021 -416 -281 90 -461 268 -547 540 -34 109
-32 304 5 443 25 96 92 242 147 322 113 164 338 323 534 376 60 16 95 19 231
15 98 -3 180 -10 210 -19z m4703 -554 l3 -42 -103 -69 c-88 -58 -303 -196
-500 -319 -29 -18 -58 -33 -65 -33 -25 0 -13 34 25 66 151 132 215 184 347
283 152 116 234 163 270 159 16 -2 21 -12 23 -45z m476 -26 c17 -12 17 -17 5
-43 -23 -46 -180 -149 -398 -259 -62 -32 -166 -88 -230 -124 -143 -82 -213
-116 -316 -151 -44 -15 -88 -31 -97 -35 -12 -5 -18 -3 -18 6 0 17 28 35 210
139 77 44 260 158 407 254 362 234 390 248 437 213z m-1405 -270 c5 -13 16
-68 25 -122 9 -55 27 -140 40 -190 13 -49 32 -128 41 -175 9 -47 32 -147 51
-222 19 -75 34 -149 34 -163 0 -25 -2 -26 -52 -23 l-53 3 -23 65 c-21 57 -47
172 -138 610 -33 159 -32 171 14 209 45 37 50 37 61 8z m1625 -104 c4 -9 2
-31 -5 -50 -17 -53 -72 -75 -299 -117 -74 -14 -193 -37 -265 -50 -186 -35
-265 -41 -290 -23 -19 15 -18 16 15 31 19 8 91 31 160 50 69 20 157 45 195 56
421 124 477 136 489 103z m-1806 -74 c21 -88 19 -92 -52 -134 -82 -48 -162
-118 -184 -162 l-18 -35 -22 103 c-12 56 -19 106 -15 109 54 46 250 170 269
170 6 0 16 -23 22 -51z m-435 -241 c10 -46 33 -156 52 -245 19 -89 48 -193 64
-233 33 -77 34 -74 -35 -84 l-42 -6 -26 66 c-26 65 -76 253 -76 286 0 9 -5 29
-10 43 l-10 26 -28 -20 c-29 -21 -140 -74 -156 -75 -8 -1 -40 136 -33 139 23
11 174 113 180 122 10 17 78 63 92 63 6 0 18 -37 28 -82z m-1100 -30 c46 -26
82 -73 97 -128 11 -42 35 -231 55 -445 7 -82 21 -205 30 -273 19 -146 16 -160
-25 -154 -24 3 -32 11 -40 41 -17 59 -48 256 -65 411 -26 227 -50 355 -74 388
-26 37 -78 62 -128 62 -92 0 -1029 -278 -1358 -403 -95 -37 -154 -87 -185
-160 -22 -50 -23 -59 -16 -242 4 -104 11 -237 16 -295 5 -58 9 -178 10 -266 0
-175 0 -174 -56 -174 -30 0 -31 4 -44 210 -6 91 -18 264 -27 385 -24 310 -23
398 6 457 26 53 76 102 144 142 55 33 549 197 1082 360 147 45 361 101 420
109 52 8 116 -2 158 -25z m2332 17 c139 -36 284 -155 347 -286 47 -96 62 -164
61 -271 -2 -106 -22 -189 -72 -293 -52 -109 -108 -180 -248 -315 -333 -323
-821 -536 -1473 -645 -305 -51 -574 -59 -1395 -41 -421 9 -558 4 -845 -30
-413 -49 -840 -150 -1095 -259 -229 -98 -472 -229 -570 -307 -116 -92 -210
-163 -252 -191 l-43 -27 0 44 c0 24 3 51 6 60 9 22 167 155 292 244 291 209
696 381 1107 471 476 104 955 140 1575 121 717 -22 1002 -11 1315 51 605 119
1032 313 1311 596 162 163 239 302 266 480 20 140 -22 280 -114 373 -53 54
-195 123 -295 143 -39 8 -76 18 -81 21 -17 10 -24 58 -10 67 22 14 150 10 213
-6z m1063 -67 c36 -11 56 -39 47 -67 -4 -14 -19 -20 -58 -25 -66 -8 -359 10
-468 29 -46 8 -95 15 -109 15 -14 0 -41 10 -60 21 l-34 21 29 12 c36 15 603
10 653 -6z m-2735 -155 c10 -32 26 -104 37 -160 11 -56 29 -130 40 -164 10
-35 18 -64 17 -65 -1 -1 -23 -5 -49 -8 l-47 -7 -25 83 c-14 46 -31 107 -37
136 -12 51 -21 62 -34 42 -3 -5 -13 -10 -22 -10 -8 0 -60 -18 -114 -40 -55
-22 -103 -40 -108 -40 -12 0 -19 21 -27 80 l-7 50 64 29 c35 15 98 43 139 60
42 18 89 41 105 51 17 11 35 20 41 20 6 0 18 -26 27 -57z m-2914 -415 c11 -35
45 -155 76 -268 32 -113 62 -211 69 -218 10 -10 21 -10 59 2 56 17 64 10 73
-56 l6 -45 -73 -26 c-114 -40 -125 -41 -146 -20 -19 19 -155 525 -169 627 -6
42 -5 46 17 55 55 22 66 15 88 -51z m1587 -84 c65 -40 102 -96 115 -172 11
-59 9 -68 -16 -138 -32 -89 -87 -148 -175 -192 -47 -23 -67 -27 -140 -27 -69
0 -93 5 -130 24 -84 43 -122 95 -135 183 -14 93 56 233 146 292 108 72 248 84
335 30z m3248 -473 c18 -20 30 -86 41 -233 l6 -88 -33 -20 c-18 -11 -36 -20
-40 -20 -24 0 -59 321 -39 359 14 26 42 27 65 2z m201 -307 c-44 -132 -88
-199 -210 -319 -61 -60 -153 -140 -205 -178 -96 -68 -406 -229 -590 -305 -321
-133 -795 -230 -1340 -273 -111 -9 -264 -9 -656 1 -708 18 -985 7 -1329 -55
-210 -38 -316 -63 -465 -110 -371 -116 -611 -239 -871 -446 -283 -225 -294
-232 -310 -208 -22 35 -8 58 109 170 180 176 257 236 423 336 166 99 250 138
459 213 215 77 325 107 599 159 214 42 294 52 485 65 280 19 351 20 922 4 498
-13 633 -8 984 37 309 40 425 62 680 132 216 59 414 134 609 232 197 100 459
309 576 462 24 30 67 100 97 155 l53 99 3 -47 c2 -30 -6 -73 -23 -124z m-664
-69 c4 -16 15 -95 24 -175 16 -138 16 -145 -2 -158 -10 -7 -31 -12 -47 -10
-38 4 -43 21 -57 203 -10 139 -10 140 12 158 32 26 62 18 70 -18z m-537 -222
c7 -18 24 -185 28 -271 2 -38 -2 -56 -12 -62 -21 -13 -67 -12 -76 1 -3 6 -11
80 -17 164 -8 123 -8 157 3 169 17 22 66 21 74 -1z m-621 -203 c4 -41 6 -118
5 -170 l-3 -95 -41 -3 -41 -3 -6 53 c-9 72 -9 283 0 292 4 4 23 6 43 4 l35 -3
8 -75z m-1271 0 c8 -72 9 -269 2 -297 -5 -19 -13 -23 -49 -23 l-42 0 -7 77
c-3 42 -6 125 -6 184 l0 108 28 4 c61 10 67 6 74 -53z m-639 -43 c5 -48 5
-131 0 -184 l-8 -97 -35 -9 c-56 -14 -60 0 -60 199 0 171 0 173 23 177 12 3
33 4 47 3 24 -1 25 -5 33 -89z m1258 48 c4 -16 7 -101 8 -187 l1 -158 -44 0
c-31 0 -46 5 -50 16 -8 22 -8 349 1 358 4 4 23 6 43 4 30 -3 36 -7 41 -33z
m-1917 -53 c2 -4 8 -80 12 -168 8 -179 7 -180 -61 -186 l-40 -3 -3 177 c-2
162 -1 177 15 181 31 8 72 7 77 -1z m-633 -190 c4 -18 10 -97 14 -177 l7 -144
-41 -12 c-23 -7 -43 -10 -45 -8 -6 6 -26 240 -26 304 0 48 3 57 23 65 40 16
61 8 68 -28z m5624 -123 c-8 -19 -24 -79 -34 -134 -23 -130 -77 -329 -161
-595 -115 -361 -148 -471 -174 -577 -15 -56 -30 -113 -36 -128 -9 -23 -8 -25
13 -20 12 2 71 14 132 25 126 23 150 40 183 125 11 28 26 50 33 50 11 0 15
-37 17 -188 l2 -188 -22 8 c-51 18 -240 -14 -473 -81 -66 -19 -122 -33 -124
-30 -3 2 1 21 9 42 8 23 12 66 11 112 -2 41 -4 89 -4 105 0 17 23 93 51 170
54 149 216 662 287 908 49 168 56 155 -77 131 -76 -14 -93 -21 -131 -54 -23
-21 -51 -54 -62 -74 -11 -20 -23 -36 -27 -36 -5 0 -8 57 -8 128 0 111 -3 130
-20 152 -11 14 -20 28 -20 32 0 3 24 9 53 13 49 6 319 66 452 101 33 8 76 24
95 34 44 23 56 13 35 -31z m-6200 -191 c19 -66 35 -177 35 -245 l0 -51 -47
-16 c-26 -9 -50 -16 -55 -16 -4 0 -8 28 -8 62 0 34 -5 114 -11 177 -11 106
-10 115 7 128 10 7 28 13 41 13 19 0 25 -9 38 -52z m5485 39 c0 -7 -12 -30
-27 -52 l-28 -40 3 -725 c2 -716 2 -725 23 -753 26 -36 20 -52 -22 -55 -19 -1
-75 -14 -125 -27 -136 -37 -143 -35 -96 31 l27 39 3 700 c2 385 0 714 -3 731
-3 17 -17 44 -30 58 -34 37 -31 46 13 47 20 0 78 13 127 28 101 32 135 37 135
18z m-650 -129 c0 -6 -12 -35 -26 -64 l-26 -54 1 -537 c1 -296 4 -593 8 -661
5 -107 8 -122 22 -116 9 3 50 15 91 26 41 11 85 26 98 34 13 9 37 45 53 81 16
36 32 63 36 59 4 -3 8 -72 10 -154 2 -81 5 -157 6 -170 2 -21 -3 -23 -53 -27
-64 -4 -347 -67 -433 -97 -77 -27 -91 -15 -51 43 l28 41 -2 719 c-2 751 -1
738 -45 787 -18 20 -19 24 -7 32 8 5 31 10 50 10 19 1 78 14 130 30 112 34
110 33 110 18z m-1016 -115 c3 -21 6 -110 6 -198 l-1 -160 -22 26 c-12 14 -34
40 -48 59 l-25 33 -90 -17 c-49 -10 -103 -24 -120 -31 l-31 -13 -1 -143 c-1
-79 1 -203 4 -275 l6 -130 61 14 c88 20 127 41 163 89 l32 42 6 -107 c3 -59 9
-146 11 -194 3 -49 2 -88 -3 -88 -5 0 -23 20 -41 45 -38 54 -49 55 -162 19
l-81 -26 6 -45 c3 -25 6 -177 6 -338 l0 -291 35 -41 c19 -23 35 -44 35 -47 0
-3 -12 -6 -27 -6 -24 0 -220 -45 -281 -65 -31 -9 -28 9 11 62 l32 45 3 393 3
392 -25 30 -25 30 25 11 25 12 -3 354 -3 354 -33 41 c-18 23 -31 45 -28 50 3
5 27 12 53 16 90 12 446 86 463 95 9 5 22 16 30 24 19 24 27 19 34 -21z m641
-275 c8 -83 -3 -83 -66 -1 -49 62 -49 62 -186 27 l-73 -19 0 -232 c0 -128 1
-233 3 -233 15 1 137 44 152 54 11 8 29 30 40 50 23 43 35 46 35 9 0 -16 5
-102 10 -192 6 -90 8 -166 6 -169 -3 -2 -20 19 -38 47 -18 28 -39 53 -46 55
-7 3 -48 -5 -92 -17 -60 -16 -79 -26 -76 -37 3 -8 6 -131 8 -272 2 -142 5
-258 6 -258 2 0 29 7 60 16 154 42 191 67 217 145 25 75 35 69 35 -23 0 -46 3
-126 6 -179 l7 -95 -74 -13 c-117 -21 -358 -78 -423 -100 -33 -12 -63 -21 -68
-21 -15 0 -8 23 17 59 l24 36 2 723 1 723 -31 39 c-17 21 -31 41 -31 43 0 2
30 7 68 10 104 9 392 74 442 100 l45 23 6 -115 c4 -64 10 -146 14 -183z
m-1529 145 c3 -21 14 -72 24 -113 11 -41 26 -118 35 -170 9 -52 27 -142 41
-199 13 -57 23 -105 21 -107 -1 -2 -21 -6 -43 -10 l-41 -6 -6 38 c-4 22 -7 51
-7 66 0 36 -9 40 -73 27 -53 -11 -55 -13 -61 -48 -3 -20 -6 -50 -6 -68 0 -29
-4 -33 -41 -43 -23 -6 -44 -9 -47 -5 -3 3 9 83 26 178 57 302 72 393 72 424 0
48 20 64 87 72 7 0 15 -16 19 -36z m-321 -75 c39 -31 65 -93 65 -160 0 -70
-10 -96 -49 -134 -17 -16 -31 -33 -31 -39 0 -5 23 -63 51 -128 28 -65 49 -120
46 -123 -3 -3 -23 -8 -45 -11 l-40 -5 -32 83 c-46 119 -57 139 -81 139 -21 0
-21 -3 -14 -114 l7 -113 -32 -7 c-65 -13 -61 -35 -58 299 l3 306 45 14 c70 21
132 19 165 -7z m-391 -55 c4 -16 13 -66 20 -113 8 -47 31 -170 51 -274 20
-104 35 -190 33 -191 -2 -2 -19 -7 -39 -13 -36 -10 -37 -9 -43 20 -3 17 -6 43
-6 59 0 15 -3 30 -7 32 -5 2 -32 -2 -60 -11 l-53 -15 0 -63 c0 -68 -3 -72 -58
-85 l-35 -8 6 58 c4 31 13 93 22 136 49 256 65 354 65 395 0 48 11 70 45 88
34 19 53 14 59 -15z m-256 -117 c33 -32 34 -36 39 -132 5 -80 2 -106 -10 -131
-22 -42 -65 -76 -131 -104 l-56 -23 0 -97 c0 -54 -3 -100 -7 -102 -5 -2 -24
-7 -43 -11 l-35 -6 0 283 c0 203 -4 288 -12 303 -13 23 -7 25 142 58 38 8 80
-6 113 -38z m-479 -351 c4 -82 7 -152 5 -154 -2 -2 -23 14 -47 36 -24 23 -54
44 -66 48 -20 6 -168 -27 -200 -45 -13 -7 -15 -43 -16 -249 0 -133 1 -241 1
-241 14 0 156 40 172 49 13 7 36 30 52 53 l30 41 0 -197 c-1 -108 -2 -196 -4
-196 -2 0 -18 23 -36 50 -18 28 -37 50 -44 50 -6 0 -47 -13 -90 -29 l-80 -28
0 -277 c-1 -243 1 -276 14 -276 27 0 198 57 225 74 14 9 39 44 56 77 16 34 32
59 34 57 2 -2 1 -86 -2 -186 l-6 -182 -39 0 c-73 0 -419 -83 -520 -125 -26
-10 -22 6 11 52 16 22 31 48 34 59 10 33 17 1252 8 1387 -8 119 -10 130 -35
156 -37 38 -33 49 22 56 26 4 117 22 202 41 85 19 177 40 203 45 26 6 60 21
75 34 l27 24 3 -27 c1 -15 6 -94 11 -177z m-629 40 c0 -3 -14 -32 -32 -65
l-32 -61 5 -322 c2 -177 3 -491 1 -697 -3 -341 1 -438 24 -555 5 -30 5 -31
-35 -32 -22 -1 -62 -11 -87 -22 -26 -12 -50 -21 -55 -21 -10 0 -63 137 -84
219 -9 36 -34 110 -54 165 -21 56 -66 191 -101 301 -34 110 -65 207 -69 215
-8 20 -16 -207 -19 -580 l-2 -306 30 -29 c16 -16 30 -32 30 -36 0 -3 -28 -12
-62 -18 -75 -15 -139 -33 -192 -56 -56 -24 -66 -6 -25 45 l34 42 6 567 c4 311
4 658 1 770 l-5 204 -29 32 c-15 18 -28 37 -28 42 0 6 19 13 43 16 23 3 69 15
102 26 33 11 63 17 67 13 13 -13 56 -126 133 -347 40 -115 91 -256 113 -313
23 -57 48 -127 57 -157 29 -102 37 -67 31 138 -3 105 -9 300 -12 431 l-6 240
-34 30 c-44 38 -43 54 4 61 82 14 129 25 182 44 53 19 100 26 100 16z m-1397
-199 c43 -18 105 -82 128 -131 17 -39 44 -260 33 -277 -3 -4 -26 -22 -52 -39
-26 -18 -70 -51 -98 -75 l-51 -43 5 159 5 158 -26 26 c-19 19 -37 26 -63 26
-31 0 -45 -8 -89 -52 l-52 -53 -7 -370 c-9 -557 -8 -907 5 -943 13 -39 48 -62
94 -62 45 0 110 56 125 108 5 21 10 130 10 244 l0 207 33 -14 c42 -17 71 -11
119 26 45 35 63 37 54 7 -4 -13 -11 -133 -16 -268 -4 -135 -13 -262 -19 -282
-16 -51 -93 -152 -138 -182 -59 -39 -149 -66 -219 -66 -51 0 -74 6 -125 33
-56 28 -67 39 -93 91 l-30 58 2 681 c3 651 4 685 24 759 34 129 125 234 236
270 59 20 163 22 205 4z m547 -17 c0 -6 -12 -31 -27 -56 l-27 -47 1 -764 1
-764 33 -34 c18 -19 31 -36 28 -38 -3 -3 -40 -12 -84 -21 -44 -9 -113 -28
-154 -41 -40 -14 -75 -23 -77 -21 -3 2 9 33 25 68 l29 64 6 690 c3 380 2 717
-2 751 -6 46 -16 71 -40 101 -18 23 -32 44 -32 47 0 3 15 6 33 6 44 0 143 25
197 49 50 22 90 27 90 10z m5038 -851 c-2 -17 -14 -27 -45 -36 -31 -10 -43
-19 -43 -33 0 -16 7 -19 40 -19 32 0 40 -4 40 -19 0 -14 -12 -22 -45 -30 -28
-7 -45 -17 -45 -26 0 -12 14 -15 60 -15 53 0 60 -2 60 -20 0 -11 -1 -20 -2
-21 -2 0 -38 -6 -80 -13 l-78 -12 0 97 c0 54 -2 104 -6 112 -3 10 11 20 53 35
79 28 95 28 91 0z m-232 -42 c9 -24 -14 -54 -47 -61 -22 -5 -29 -11 -24 -22 3
-9 8 -49 12 -89 5 -64 4 -74 -11 -80 -28 -11 -36 7 -43 93 l-6 81 -33 -5 c-32
-5 -34 -4 -34 25 0 28 4 32 38 38 20 3 57 12 82 19 58 18 60 18 66 1z m-272
-117 c8 -85 7 -161 -3 -177 -5 -8 -17 -12 -27 -10 -17 3 -19 15 -22 112 -3
107 4 136 33 136 8 0 15 -23 19 -61z m-175 2 c13 -23 -2 -38 -43 -43 -43 -5
-43 -24 2 -47 50 -25 64 -44 60 -77 -4 -35 -43 -62 -93 -66 -37 -3 -40 -1 -43
25 -3 28 -2 28 40 25 37 -3 43 0 43 17 0 14 -14 27 -48 43 -26 13 -50 29 -53
37 -7 17 30 80 54 95 28 16 70 12 81 -9z m-259 -51 c6 -11 11 -42 11 -68 -1
-26 2 -66 5 -89 5 -36 3 -43 -18 -57 -28 -18 -120 -38 -129 -28 -4 4 -9 58
-11 120 -4 108 -4 112 16 113 12 0 37 7 56 14 48 19 58 18 70 -5z m-267 -53
c8 -21 -6 -37 -39 -46 -19 -5 -30 -15 -32 -30 -3 -20 -1 -22 32 -15 35 6 36 5
36 -25 0 -29 -2 -31 -35 -31 -31 0 -35 -3 -35 -26 0 -27 9 -29 80 -12 10 2 16
-6 18 -24 3 -26 1 -28 -33 -28 -19 0 -52 -7 -72 -15 -19 -8 -37 -15 -39 -15
-2 0 -4 58 -4 128 l0 128 53 11 c28 5 55 11 58 11 4 1 9 -4 12 -11z m-243 -66
c0 -43 -26 -184 -40 -218 -16 -38 -35 -26 -54 32 -9 30 -20 55 -25 55 -4 0
-16 -28 -27 -62 -26 -82 -43 -82 -70 2 -11 36 -31 85 -43 109 -17 33 -20 46
-10 51 21 14 36 0 59 -53 20 -46 24 -49 35 -33 8 10 19 40 25 67 7 27 16 49
20 49 4 0 20 -25 35 -55 15 -30 31 -52 36 -50 4 3 13 37 20 75 8 46 17 70 26
70 9 0 13 -13 13 -39z m-533 -178 c53 -114 60 -156 26 -161 -19 -3 -23 1 -23
21 0 21 -6 25 -42 30 -53 7 -58 4 -58 -39 0 -31 -3 -34 -29 -34 -28 0 -29 1
-20 32 5 17 20 61 34 97 13 36 29 85 35 109 6 23 15 42 21 42 6 0 31 -44 56
-97z m-248 -138 c1 -61 -9 -85 -37 -85 -12 0 -14 12 -8 67 6 56 5 64 -7 55 -8
-7 -22 -30 -32 -52 -10 -22 -21 -40 -25 -40 -4 0 -24 18 -44 40 -20 22 -37 40
-38 40 -2 0 -2 -31 0 -70 3 -65 2 -70 -17 -70 -20 0 -21 5 -21 98 0 101 6 142
21 142 5 0 28 -18 50 -40 45 -43 59 -49 59 -23 0 23 47 100 68 112 15 9 18 3
23 -52 4 -34 7 -89 8 -122z m-341 78 c-2 -21 -11 -28 -42 -37 -46 -13 -60 -36
-23 -36 38 0 57 -10 57 -31 0 -13 -10 -20 -35 -25 -28 -5 -35 -11 -35 -30 0
-20 6 -23 42 -26 30 -2 44 -8 46 -19 3 -16 -14 -22 -121 -44 -16 -3 -17 6 -15
117 l3 121 55 17 c73 24 72 24 68 -7z m-250 -153 c1 -63 -2 -121 -7 -129 -10
-15 -9 -16 -108 64 l-31 26 5 -60 c6 -60 5 -61 -20 -61 l-26 0 -3 125 c-2 87
0 125 8 125 16 0 97 -64 117 -92 16 -22 16 -22 10 24 -8 67 2 100 30 96 21 -3
22 -8 25 -118z m-318 -80 l0 -130 -25 0 -25 0 0 123 c0 68 3 127 7 130 3 4 15
7 25 7 17 0 18 -11 18 -130z m-186 74 c41 -16 -2 -72 -44 -59 -22 7 -55 -25
-65 -62 -4 -19 0 -32 16 -49 26 -28 46 -30 70 -8 22 20 49 12 49 -14 0 -24
-27 -48 -63 -57 -21 -6 -37 -1 -66 18 -73 48 -77 120 -11 200 25 29 38 37 65
37 18 0 40 -3 49 -6z"/>
<path d="M4725 8487 c-55 -27 -94 -62 -128 -116 -18 -29 -22 -51 -22 -113 0
-70 3 -79 31 -115 16 -21 55 -51 85 -66 46 -25 62 -28 114 -24 104 8 191 71
236 172 44 99 26 184 -54 248 -34 28 -45 31 -125 34 -76 4 -93 1 -137 -20z"/>
<path d="M5179 8200 c-48 -25 -106 -94 -119 -139 -13 -47 -13 -136 1 -184 13
-47 72 -115 116 -134 79 -33 186 -4 243 65 103 126 62 350 -73 401 -45 17
-128 12 -168 -9z"/>
<path d="M4358 8030 c-80 -43 -128 -138 -128 -254 1 -74 17 -122 60 -176 42
-53 82 -73 146 -72 90 1 186 68 226 160 23 51 26 144 8 211 -31 115 -204 188
-312 131z"/>
<path d="M4811 7945 c-37 -32 -57 -86 -42 -114 40 -74 154 -64 188 16 19 47
10 79 -30 103 -43 27 -79 25 -116 -5z"/>
<path d="M4858 7688 c-81 -22 -171 -135 -184 -232 -14 -102 55 -202 157 -226
55 -13 96 -8 176 22 107 40 177 134 175 238 -1 99 -26 138 -117 181 -64 31
-134 37 -207 17z"/>
<path d="M2995 8162 c-105 -37 -185 -111 -211 -198 -28 -93 -13 -173 44 -235
100 -112 264 -125 399 -33 62 43 99 89 124 155 25 66 24 123 -5 185 -56 120
-209 175 -351 126z"/>
<path d="M3546 7814 c-69 -22 -155 -109 -184 -187 -57 -151 -2 -316 123 -377
38 -18 59 -21 118 -18 85 5 136 26 189 81 77 79 109 242 69 349 -28 73 -90
131 -162 152 -64 19 -89 19 -153 0z"/>
<path d="M2569 7616 c-79 -28 -148 -104 -175 -192 -43 -145 9 -296 125 -356
133 -69 283 -2 360 161 22 47 26 69 25 136 0 69 -5 88 -29 134 -47 86 -122
130 -220 130 -27 0 -66 -6 -86 -13z"/>
<path d="M3074 7531 c-60 -37 -70 -129 -17 -171 31 -24 99 -27 129 -5 33 22
57 81 50 121 -13 67 -96 95 -162 55z"/>
<path d="M3132 7234 c-68 -18 -85 -28 -139 -77 -127 -117 -143 -298 -36 -399
101 -96 282 -90 414 14 87 68 119 177 88 293 -16 60 -111 149 -180 169 -63 19
-78 19 -147 0z"/>
<path d="M4600 6185 c-94 -30 -180 -138 -180 -227 0 -47 53 -111 107 -129 132
-43 316 102 300 238 -2 24 -12 54 -21 68 -35 53 -127 75 -206 50z"/>
<path d="M5527 3945 c-10 -33 -38 -217 -33 -222 3 -3 23 -2 46 2 l41 7 -7 46
c-14 97 -40 188 -47 167z"/>
<path d="M5127 3953 c-12 -11 -8 -203 3 -203 19 0 84 31 92 43 9 15 10 93 2
136 -6 29 -9 31 -49 31 -23 0 -45 -3 -48 -7z"/>
<path d="M4805 3753 c-4 -27 -13 -76 -20 -110 l-13 -63 44 0 c51 0 49 -7 29
115 -8 50 -15 93 -15 98 0 4 -4 7 -9 7 -6 0 -13 -21 -16 -47z"/>
<path d="M4462 3798 c-18 -18 -17 -218 2 -218 33 0 78 24 87 47 10 27 12 143
3 167 -7 19 -74 22 -92 4z"/>
<path d="M6656 2225 c-5 -15 2 -45 11 -45 17 0 43 24 43 40 0 24 -45 28 -54 5z"/>
<path d="M6680 2143 c-33 -13 -41 -53 -11 -53 35 0 51 12 51 36 0 24 -10 28
-40 17z"/>
<path d="M5644 1958 c-4 -15 -1 -25 12 -35 28 -20 34 -16 22 17 -13 39 -25 46
-34 18z"/>
</g>
</svg>
